<mxfile host="app.diagrams.net" agent="Mozilla/5.0 (Windows NT 10.0; Win64; x64) AppleWebKit/537.36 (KHTML, like Gecko) Chrome/130.0.0.0 YaBrowser/24.12.0.0 Safari/537.36" version="25.0.3">
  <diagram name="Страница — 1" id="DmO1OzRgkBSsMh2dcVUt">
    <mxGraphModel dx="1290" dy="567" grid="1" gridSize="10" guides="1" tooltips="1" connect="1" arrows="1" fold="1" page="1" pageScale="1" pageWidth="827" pageHeight="1169" math="0" shadow="0">
      <root>
        <mxCell id="0" />
        <mxCell id="1" parent="0" />
        <mxCell id="_wYzCuNYSTpVUK79Bqjz-4" style="edgeStyle=orthogonalEdgeStyle;rounded=0;orthogonalLoop=1;jettySize=auto;html=1;" parent="1" source="_wYzCuNYSTpVUK79Bqjz-1" target="_wYzCuNYSTpVUK79Bqjz-3" edge="1">
          <mxGeometry relative="1" as="geometry" />
        </mxCell>
        <mxCell id="_wYzCuNYSTpVUK79Bqjz-1" value="Начало" style="ellipse;whiteSpace=wrap;html=1;" parent="1" vertex="1">
          <mxGeometry x="250" y="60" width="140" height="50" as="geometry" />
        </mxCell>
        <mxCell id="_wYzCuNYSTpVUK79Bqjz-2" value="Конец" style="ellipse;whiteSpace=wrap;html=1;" parent="1" vertex="1">
          <mxGeometry x="250" y="550" width="140" height="50" as="geometry" />
        </mxCell>
        <mxCell id="_wYzCuNYSTpVUK79Bqjz-6" style="edgeStyle=orthogonalEdgeStyle;rounded=0;orthogonalLoop=1;jettySize=auto;html=1;" parent="1" source="_wYzCuNYSTpVUK79Bqjz-3" target="_wYzCuNYSTpVUK79Bqjz-5" edge="1">
          <mxGeometry relative="1" as="geometry" />
        </mxCell>
        <mxCell id="_wYzCuNYSTpVUK79Bqjz-3" value="Ввод n" style="shape=parallelogram;perimeter=parallelogramPerimeter;whiteSpace=wrap;html=1;fixedSize=1;" parent="1" vertex="1">
          <mxGeometry x="245" y="130" width="150" height="50" as="geometry" />
        </mxCell>
        <mxCell id="_wYzCuNYSTpVUK79Bqjz-8" style="edgeStyle=orthogonalEdgeStyle;rounded=0;orthogonalLoop=1;jettySize=auto;html=1;" parent="1" source="_wYzCuNYSTpVUK79Bqjz-5" target="_wYzCuNYSTpVUK79Bqjz-7" edge="1">
          <mxGeometry relative="1" as="geometry" />
        </mxCell>
        <mxCell id="_wYzCuNYSTpVUK79Bqjz-5" value="m := 0" style="rounded=0;whiteSpace=wrap;html=1;" parent="1" vertex="1">
          <mxGeometry x="255" y="200" width="130" height="50" as="geometry" />
        </mxCell>
        <mxCell id="_wYzCuNYSTpVUK79Bqjz-10" style="edgeStyle=orthogonalEdgeStyle;rounded=0;orthogonalLoop=1;jettySize=auto;html=1;" parent="1" source="_wYzCuNYSTpVUK79Bqjz-7" target="_wYzCuNYSTpVUK79Bqjz-9" edge="1">
          <mxGeometry relative="1" as="geometry" />
        </mxCell>
        <mxCell id="_wYzCuNYSTpVUK79Bqjz-7" value="Цикл 1&lt;div&gt;n = 0&lt;/div&gt;" style="shape=loopLimit;whiteSpace=wrap;html=1;" parent="1" vertex="1">
          <mxGeometry x="255" y="270" width="130" height="50" as="geometry" />
        </mxCell>
        <mxCell id="_wYzCuNYSTpVUK79Bqjz-15" style="edgeStyle=orthogonalEdgeStyle;rounded=0;orthogonalLoop=1;jettySize=auto;html=1;" parent="1" source="_wYzCuNYSTpVUK79Bqjz-9" target="_wYzCuNYSTpVUK79Bqjz-14" edge="1">
          <mxGeometry relative="1" as="geometry" />
        </mxCell>
        <mxCell id="_wYzCuNYSTpVUK79Bqjz-9" value="&lt;div&gt;a := n mod 10;&lt;/div&gt;&lt;div&gt;&lt;span style=&quot;background-color: initial;&quot;&gt;m := m * 10 + a;&lt;/span&gt;&lt;/div&gt;&lt;div&gt;&lt;span style=&quot;background-color: initial;&quot;&gt;n := n div 10;&lt;/span&gt;&lt;/div&gt;" style="rounded=0;whiteSpace=wrap;html=1;align=left;" parent="1" vertex="1">
          <mxGeometry x="255" y="340" width="130" height="50" as="geometry" />
        </mxCell>
        <mxCell id="_wYzCuNYSTpVUK79Bqjz-13" style="edgeStyle=orthogonalEdgeStyle;rounded=0;orthogonalLoop=1;jettySize=auto;html=1;" parent="1" source="_wYzCuNYSTpVUK79Bqjz-11" target="_wYzCuNYSTpVUK79Bqjz-2" edge="1">
          <mxGeometry relative="1" as="geometry" />
        </mxCell>
        <mxCell id="_wYzCuNYSTpVUK79Bqjz-11" value="Вывод m" style="shape=parallelogram;perimeter=parallelogramPerimeter;whiteSpace=wrap;html=1;fixedSize=1;" parent="1" vertex="1">
          <mxGeometry x="245" y="480" width="150" height="50" as="geometry" />
        </mxCell>
        <mxCell id="_wYzCuNYSTpVUK79Bqjz-16" style="edgeStyle=orthogonalEdgeStyle;rounded=0;orthogonalLoop=1;jettySize=auto;html=1;" parent="1" source="_wYzCuNYSTpVUK79Bqjz-14" target="_wYzCuNYSTpVUK79Bqjz-11" edge="1">
          <mxGeometry relative="1" as="geometry" />
        </mxCell>
        <mxCell id="_wYzCuNYSTpVUK79Bqjz-14" value="Цикл 1" style="shape=loopLimit;whiteSpace=wrap;html=1;direction=west;" parent="1" vertex="1">
          <mxGeometry x="255" y="410" width="130" height="50" as="geometry" />
        </mxCell>
        <mxCell id="_wYzCuNYSTpVUK79Bqjz-20" value="" style="group" parent="1" vertex="1" connectable="0">
          <mxGeometry x="440" y="140" width="130" height="30" as="geometry" />
        </mxCell>
        <mxCell id="_wYzCuNYSTpVUK79Bqjz-17" value="" style="shape=partialRectangle;whiteSpace=wrap;html=1;bottom=1;right=1;left=1;top=0;fillColor=none;routingCenterX=-0.5;rotation=90;" parent="_wYzCuNYSTpVUK79Bqjz-20" vertex="1">
          <mxGeometry x="-10" y="10" width="30" height="10" as="geometry" />
        </mxCell>
        <mxCell id="_wYzCuNYSTpVUK79Bqjz-18" value="" style="endArrow=none;dashed=1;html=1;rounded=0;entryX=0.5;entryY=1;entryDx=0;entryDy=0;" parent="_wYzCuNYSTpVUK79Bqjz-20" source="_wYzCuNYSTpVUK79Bqjz-3" target="_wYzCuNYSTpVUK79Bqjz-17" edge="1">
          <mxGeometry width="50" height="50" relative="1" as="geometry">
            <mxPoint x="210" y="270" as="sourcePoint" />
            <mxPoint x="260" y="220" as="targetPoint" />
          </mxGeometry>
        </mxCell>
        <mxCell id="_wYzCuNYSTpVUK79Bqjz-19" value="n - начальное число" style="text;html=1;align=center;verticalAlign=middle;whiteSpace=wrap;rounded=0;" parent="_wYzCuNYSTpVUK79Bqjz-20" vertex="1">
          <mxGeometry x="10" width="120" height="30" as="geometry" />
        </mxCell>
        <mxCell id="_wYzCuNYSTpVUK79Bqjz-21" value="" style="group" parent="1" vertex="1" connectable="0">
          <mxGeometry x="430" y="210" width="130" height="30" as="geometry" />
        </mxCell>
        <mxCell id="_wYzCuNYSTpVUK79Bqjz-25" value="" style="group" parent="_wYzCuNYSTpVUK79Bqjz-21" vertex="1" connectable="0">
          <mxGeometry x="-8.881784197001252e-16" width="130" height="30" as="geometry" />
        </mxCell>
        <mxCell id="_wYzCuNYSTpVUK79Bqjz-22" value="" style="shape=partialRectangle;whiteSpace=wrap;html=1;bottom=1;right=1;left=1;top=0;fillColor=none;routingCenterX=-0.5;rotation=90;" parent="_wYzCuNYSTpVUK79Bqjz-25" vertex="1">
          <mxGeometry y="10" width="30" height="10" as="geometry" />
        </mxCell>
        <mxCell id="_wYzCuNYSTpVUK79Bqjz-24" value="m - переменная для записи результата" style="text;html=1;align=left;verticalAlign=middle;whiteSpace=wrap;rounded=0;" parent="_wYzCuNYSTpVUK79Bqjz-25" vertex="1">
          <mxGeometry x="20" width="120" height="30" as="geometry" />
        </mxCell>
        <mxCell id="_wYzCuNYSTpVUK79Bqjz-23" value="" style="endArrow=none;dashed=1;html=1;rounded=0;entryX=0.5;entryY=1;entryDx=0;entryDy=0;" parent="1" source="_wYzCuNYSTpVUK79Bqjz-5" target="_wYzCuNYSTpVUK79Bqjz-22" edge="1">
          <mxGeometry width="50" height="50" relative="1" as="geometry">
            <mxPoint x="650" y="490" as="sourcePoint" />
            <mxPoint x="700" y="440" as="targetPoint" />
          </mxGeometry>
        </mxCell>
        <mxCell id="_wYzCuNYSTpVUK79Bqjz-26" value="" style="group" parent="1" vertex="1" connectable="0">
          <mxGeometry x="440" y="350" width="160" height="30" as="geometry" />
        </mxCell>
        <mxCell id="_wYzCuNYSTpVUK79Bqjz-27" value="" style="shape=partialRectangle;whiteSpace=wrap;html=1;bottom=1;right=1;left=1;top=0;fillColor=none;routingCenterX=-0.5;rotation=90;" parent="_wYzCuNYSTpVUK79Bqjz-26" vertex="1">
          <mxGeometry x="-22.5" y="12.5" width="55" height="10" as="geometry" />
        </mxCell>
        <mxCell id="_wYzCuNYSTpVUK79Bqjz-28" value="div - целочисленное деление&lt;br&gt;mod - остаток от деления" style="text;html=1;align=left;verticalAlign=middle;whiteSpace=wrap;rounded=0;" parent="_wYzCuNYSTpVUK79Bqjz-26" vertex="1">
          <mxGeometry x="10" width="150" height="30" as="geometry" />
        </mxCell>
        <mxCell id="_wYzCuNYSTpVUK79Bqjz-29" value="" style="endArrow=none;dashed=1;html=1;rounded=0;entryX=0.5;entryY=1;entryDx=0;entryDy=0;" parent="1" source="_wYzCuNYSTpVUK79Bqjz-9" target="_wYzCuNYSTpVUK79Bqjz-27" edge="1">
          <mxGeometry width="50" height="50" relative="1" as="geometry">
            <mxPoint x="650" y="410" as="sourcePoint" />
            <mxPoint x="700" y="360" as="targetPoint" />
          </mxGeometry>
        </mxCell>
        <mxCell id="_wYzCuNYSTpVUK79Bqjz-32" value="" style="shape=partialRectangle;whiteSpace=wrap;html=1;bottom=1;right=1;left=1;top=0;fillColor=none;routingCenterX=-0.5;rotation=90;" parent="1" vertex="1">
          <mxGeometry x="430" y="500" width="30" height="10" as="geometry" />
        </mxCell>
        <mxCell id="_wYzCuNYSTpVUK79Bqjz-33" value="Вывод результата" style="text;html=1;align=center;verticalAlign=middle;whiteSpace=wrap;rounded=0;" parent="1" vertex="1">
          <mxGeometry x="450" y="490" width="120" height="30" as="geometry" />
        </mxCell>
        <mxCell id="_wYzCuNYSTpVUK79Bqjz-34" value="" style="endArrow=none;dashed=1;html=1;rounded=0;entryX=0.5;entryY=1;entryDx=0;entryDy=0;" parent="1" target="_wYzCuNYSTpVUK79Bqjz-32" edge="1">
          <mxGeometry width="50" height="50" relative="1" as="geometry">
            <mxPoint x="385" y="505" as="sourcePoint" />
            <mxPoint x="700" y="720" as="targetPoint" />
          </mxGeometry>
        </mxCell>
        <mxCell id="_wYzCuNYSTpVUK79Bqjz-35" value="" style="shape=partialRectangle;whiteSpace=wrap;html=1;bottom=1;right=1;left=1;top=0;fillColor=none;routingCenterX=-0.5;rotation=90;" parent="1" vertex="1">
          <mxGeometry x="430" y="290" width="30" height="10" as="geometry" />
        </mxCell>
        <mxCell id="_wYzCuNYSTpVUK79Bqjz-36" value="Цикл выполняется, пока n &amp;gt; 0" style="text;html=1;align=left;verticalAlign=middle;whiteSpace=wrap;rounded=0;" parent="1" vertex="1">
          <mxGeometry x="450" y="280" width="120" height="30" as="geometry" />
        </mxCell>
        <mxCell id="_wYzCuNYSTpVUK79Bqjz-37" value="" style="endArrow=none;dashed=1;html=1;rounded=0;entryX=0.5;entryY=1;entryDx=0;entryDy=0;" parent="1" target="_wYzCuNYSTpVUK79Bqjz-35" edge="1">
          <mxGeometry width="50" height="50" relative="1" as="geometry">
            <mxPoint x="385" y="295" as="sourcePoint" />
            <mxPoint x="700" y="510" as="targetPoint" />
          </mxGeometry>
        </mxCell>
        <mxCell id="gm6n9SwyiwsPw5kUic6w-1" value="ЗАДАЧА №57&lt;div&gt;Переверните число&lt;br&gt;&lt;/div&gt;" style="text;html=1;align=center;verticalAlign=middle;whiteSpace=wrap;rounded=0;" parent="1" vertex="1">
          <mxGeometry x="410" y="50" width="120" height="30" as="geometry" />
        </mxCell>
      </root>
    </mxGraphModel>
  </diagram>
</mxfile>
